<?xml version="1.0" encoding="utf-8"?>
<svg xmlns="http://www.w3.org/2000/svg" xmlns:xlink="http://www.w3.org/1999/xlink" xml:space="preserve" width="1076.25" height="1255.625" viewBox="0 0 1076.25 1255.625"><g transform="scale(44.84375)" fill="#d7d9e5"><path d="M22.7,0H1.3C0.6,0,0,0.6,0,1.3v25.3C0,27.4,0.6,28,1.3,28h21.3c0.7,0,1.3-0.6,1.3-1.3V1.3C24,0.6,23.4,0,22.7,0 z M23,22c0,0.6-0.5,1-1,1H2c-0.6,0-1-0.5-1-1V2c0-0.6,0.5-1,1-1h20c0.6,0,1,0.5,1,1V22z"/></g><g fill="#d7d9e5">
<g transform="translate(296.625,107.625) scale(3.605)"><rect width="6" height="6"/></g>
<g transform="translate(317.625,107.625) scale(3.605)"><rect width="6" height="6"/></g>
<g transform="translate(359.625,107.625) scale(3.605)"><rect width="6" height="6"/></g>
<g transform="translate(380.625,107.625) scale(3.605)"><rect width="6" height="6"/></g>
<g transform="translate(401.625,107.625) scale(3.605)"><rect width="6" height="6"/></g>
<g transform="translate(485.625,107.625) scale(3.605)"><rect width="6" height="6"/></g>
<g transform="translate(506.625,107.625) scale(3.605)"><rect width="6" height="6"/></g>
<g transform="translate(527.625,107.625) scale(3.605)"><rect width="6" height="6"/></g>
<g transform="translate(548.625,107.625) scale(3.605)"><rect width="6" height="6"/></g>
<g transform="translate(590.625,107.625) scale(3.605)"><rect width="6" height="6"/></g>
<g transform="translate(653.625,107.625) scale(3.605)"><rect width="6" height="6"/></g>
<g transform="translate(695.625,107.625) scale(3.605)"><rect width="6" height="6"/></g>
<g transform="translate(737.625,107.625) scale(3.605)"><rect width="6" height="6"/></g>
<g transform="translate(758.625,107.625) scale(3.605)"><rect width="6" height="6"/></g>
<g transform="translate(779.625,107.625) scale(3.605)"><rect width="6" height="6"/></g>
<g transform="translate(317.625,128.625) scale(3.605)"><rect width="6" height="6"/></g>
<g transform="translate(338.625,128.625) scale(3.605)"><rect width="6" height="6"/></g>
<g transform="translate(548.625,128.625) scale(3.605)"><rect width="6" height="6"/></g>
<g transform="translate(632.625,128.625) scale(3.605)"><rect width="6" height="6"/></g>
<g transform="translate(653.625,128.625) scale(3.605)"><rect width="6" height="6"/></g>
<g transform="translate(674.625,128.625) scale(3.605)"><rect width="6" height="6"/></g>
<g transform="translate(695.625,128.625) scale(3.605)"><rect width="6" height="6"/></g>
<g transform="translate(716.625,128.625) scale(3.605)"><rect width="6" height="6"/></g>
<g transform="translate(737.625,128.625) scale(3.605)"><rect width="6" height="6"/></g>
<g transform="translate(779.625,128.625) scale(3.605)"><rect width="6" height="6"/></g>
<g transform="translate(275.625,149.625) scale(3.605)"><rect width="6" height="6"/></g>
<g transform="translate(296.625,149.625) scale(3.605)"><rect width="6" height="6"/></g>
<g transform="translate(380.625,149.625) scale(3.605)"><rect width="6" height="6"/></g>
<g transform="translate(422.625,149.625) scale(3.605)"><rect width="6" height="6"/></g>
<g transform="translate(443.625,149.625) scale(3.605)"><rect width="6" height="6"/></g>
<g transform="translate(485.625,149.625) scale(3.605)"><rect width="6" height="6"/></g>
<g transform="translate(653.625,149.625) scale(3.605)"><rect width="6" height="6"/></g>
<g transform="translate(674.625,149.625) scale(3.605)"><rect width="6" height="6"/></g>
<g transform="translate(695.625,149.625) scale(3.605)"><rect width="6" height="6"/></g>
<g transform="translate(275.625,170.625) scale(3.605)"><rect width="6" height="6"/></g>
<g transform="translate(296.625,170.625) scale(3.605)"><rect width="6" height="6"/></g>
<g transform="translate(317.625,170.625) scale(3.605)"><rect width="6" height="6"/></g>
<g transform="translate(338.625,170.625) scale(3.605)"><rect width="6" height="6"/></g>
<g transform="translate(380.625,170.625) scale(3.605)"><rect width="6" height="6"/></g>
<g transform="translate(443.625,170.625) scale(3.605)"><rect width="6" height="6"/></g>
<g transform="translate(464.625,170.625) scale(3.605)"><rect width="6" height="6"/></g>
<g transform="translate(506.625,170.625) scale(3.605)"><rect width="6" height="6"/></g>
<g transform="translate(548.625,170.625) scale(3.605)"><rect width="6" height="6"/></g>
<g transform="translate(569.625,170.625) scale(3.605)"><rect width="6" height="6"/></g>
<g transform="translate(590.625,170.625) scale(3.605)"><rect width="6" height="6"/></g>
<g transform="translate(611.625,170.625) scale(3.605)"><rect width="6" height="6"/></g>
<g transform="translate(632.625,170.625) scale(3.605)"><rect width="6" height="6"/></g>
<g transform="translate(695.625,170.625) scale(3.605)"><rect width="6" height="6"/></g>
<g transform="translate(716.625,170.625) scale(3.605)"><rect width="6" height="6"/></g>
<g transform="translate(758.625,170.625) scale(3.605)"><rect width="6" height="6"/></g>
<g transform="translate(275.625,191.625) scale(3.605)"><rect width="6" height="6"/></g>
<g transform="translate(296.625,191.625) scale(3.605)"><rect width="6" height="6"/></g>
<g transform="translate(317.625,191.625) scale(3.605)"><rect width="6" height="6"/></g>
<g transform="translate(401.625,191.625) scale(3.605)"><rect width="6" height="6"/></g>
<g transform="translate(422.625,191.625) scale(3.605)"><rect width="6" height="6"/></g>
<g transform="translate(464.625,191.625) scale(3.605)"><rect width="6" height="6"/></g>
<g transform="translate(485.625,191.625) scale(3.605)"><rect width="6" height="6"/></g>
<g transform="translate(506.625,191.625) scale(3.605)"><rect width="6" height="6"/></g>
<g transform="translate(527.625,191.625) scale(3.605)"><rect width="6" height="6"/></g>
<g transform="translate(569.625,191.625) scale(3.605)"><rect width="6" height="6"/></g>
<g transform="translate(590.625,191.625) scale(3.605)"><rect width="6" height="6"/></g>
<g transform="translate(632.625,191.625) scale(3.605)"><rect width="6" height="6"/></g>
<g transform="translate(653.625,191.625) scale(3.605)"><rect width="6" height="6"/></g>
<g transform="translate(695.625,191.625) scale(3.605)"><rect width="6" height="6"/></g>
<g transform="translate(716.625,191.625) scale(3.605)"><rect width="6" height="6"/></g>
<g transform="translate(758.625,191.625) scale(3.605)"><rect width="6" height="6"/></g>
<g transform="translate(779.625,191.625) scale(3.605)"><rect width="6" height="6"/></g>
<g transform="translate(275.625,212.625) scale(3.605)"><rect width="6" height="6"/></g>
<g transform="translate(317.625,212.625) scale(3.605)"><rect width="6" height="6"/></g>
<g transform="translate(359.625,212.625) scale(3.605)"><rect width="6" height="6"/></g>
<g transform="translate(401.625,212.625) scale(3.605)"><rect width="6" height="6"/></g>
<g transform="translate(527.625,212.625) scale(3.605)"><rect width="6" height="6"/></g>
<g transform="translate(569.625,212.625) scale(3.605)"><rect width="6" height="6"/></g>
<g transform="translate(653.625,212.625) scale(3.605)"><rect width="6" height="6"/></g>
<g transform="translate(674.625,212.625) scale(3.605)"><rect width="6" height="6"/></g>
<g transform="translate(695.625,212.625) scale(3.605)"><rect width="6" height="6"/></g>
<g transform="translate(275.625,233.625) scale(3.605)"><rect width="6" height="6"/></g>
<g transform="translate(317.625,233.625) scale(3.605)"><rect width="6" height="6"/></g>
<g transform="translate(359.625,233.625) scale(3.605)"><rect width="6" height="6"/></g>
<g transform="translate(401.625,233.625) scale(3.605)"><rect width="6" height="6"/></g>
<g transform="translate(443.625,233.625) scale(3.605)"><rect width="6" height="6"/></g>
<g transform="translate(485.625,233.625) scale(3.605)"><rect width="6" height="6"/></g>
<g transform="translate(527.625,233.625) scale(3.605)"><rect width="6" height="6"/></g>
<g transform="translate(569.625,233.625) scale(3.605)"><rect width="6" height="6"/></g>
<g transform="translate(611.625,233.625) scale(3.605)"><rect width="6" height="6"/></g>
<g transform="translate(653.625,233.625) scale(3.605)"><rect width="6" height="6"/></g>
<g transform="translate(695.625,233.625) scale(3.605)"><rect width="6" height="6"/></g>
<g transform="translate(737.625,233.625) scale(3.605)"><rect width="6" height="6"/></g>
<g transform="translate(779.625,233.625) scale(3.605)"><rect width="6" height="6"/></g>
<g transform="translate(275.625,254.625) scale(3.605)"><rect width="6" height="6"/></g>
<g transform="translate(296.625,254.625) scale(3.605)"><rect width="6" height="6"/></g>
<g transform="translate(317.625,254.625) scale(3.605)"><rect width="6" height="6"/></g>
<g transform="translate(380.625,254.625) scale(3.605)"><rect width="6" height="6"/></g>
<g transform="translate(401.625,254.625) scale(3.605)"><rect width="6" height="6"/></g>
<g transform="translate(506.625,254.625) scale(3.605)"><rect width="6" height="6"/></g>
<g transform="translate(548.625,254.625) scale(3.605)"><rect width="6" height="6"/></g>
<g transform="translate(569.625,254.625) scale(3.605)"><rect width="6" height="6"/></g>
<g transform="translate(653.625,254.625) scale(3.605)"><rect width="6" height="6"/></g>
<g transform="translate(674.625,254.625) scale(3.605)"><rect width="6" height="6"/></g>
<g transform="translate(695.625,254.625) scale(3.605)"><rect width="6" height="6"/></g>
<g transform="translate(758.625,254.625) scale(3.605)"><rect width="6" height="6"/></g>
<g transform="translate(779.625,254.625) scale(3.605)"><rect width="6" height="6"/></g>
<g transform="translate(107.625,275.625) scale(3.605)"><rect width="6" height="6"/></g>
<g transform="translate(149.625,275.625) scale(3.605)"><rect width="6" height="6"/></g>
<g transform="translate(170.625,275.625) scale(3.605)"><rect width="6" height="6"/></g>
<g transform="translate(191.625,275.625) scale(3.605)"><rect width="6" height="6"/></g>
<g transform="translate(212.625,275.625) scale(3.605)"><rect width="6" height="6"/></g>
<g transform="translate(233.625,275.625) scale(3.605)"><rect width="6" height="6"/></g>
<g transform="translate(296.625,275.625) scale(3.605)"><rect width="6" height="6"/></g>
<g transform="translate(359.625,275.625) scale(3.605)"><rect width="6" height="6"/></g>
<g transform="translate(401.625,275.625) scale(3.605)"><rect width="6" height="6"/></g>
<g transform="translate(443.625,275.625) scale(3.605)"><rect width="6" height="6"/></g>
<g transform="translate(464.625,275.625) scale(3.605)"><rect width="6" height="6"/></g>
<g transform="translate(569.625,275.625) scale(3.605)"><rect width="6" height="6"/></g>
<g transform="translate(590.625,275.625) scale(3.605)"><rect width="6" height="6"/></g>
<g transform="translate(611.625,275.625) scale(3.605)"><rect width="6" height="6"/></g>
<g transform="translate(632.625,275.625) scale(3.605)"><rect width="6" height="6"/></g>
<g transform="translate(674.625,275.625) scale(3.605)"><rect width="6" height="6"/></g>
<g transform="translate(716.625,275.625) scale(3.605)"><rect width="6" height="6"/></g>
<g transform="translate(758.625,275.625) scale(3.605)"><rect width="6" height="6"/></g>
<g transform="translate(821.625,275.625) scale(3.605)"><rect width="6" height="6"/></g>
<g transform="translate(842.625,275.625) scale(3.605)"><rect width="6" height="6"/></g>
<g transform="translate(863.625,275.625) scale(3.605)"><rect width="6" height="6"/></g>
<g transform="translate(884.625,275.625) scale(3.605)"><rect width="6" height="6"/></g>
<g transform="translate(905.625,275.625) scale(3.605)"><rect width="6" height="6"/></g>
<g transform="translate(149.625,296.625) scale(3.605)"><rect width="6" height="6"/></g>
<g transform="translate(191.625,296.625) scale(3.605)"><rect width="6" height="6"/></g>
<g transform="translate(254.625,296.625) scale(3.605)"><rect width="6" height="6"/></g>
<g transform="translate(359.625,296.625) scale(3.605)"><rect width="6" height="6"/></g>
<g transform="translate(380.625,296.625) scale(3.605)"><rect width="6" height="6"/></g>
<g transform="translate(422.625,296.625) scale(3.605)"><rect width="6" height="6"/></g>
<g transform="translate(464.625,296.625) scale(3.605)"><rect width="6" height="6"/></g>
<g transform="translate(485.625,296.625) scale(3.605)"><rect width="6" height="6"/></g>
<g transform="translate(506.625,296.625) scale(3.605)"><rect width="6" height="6"/></g>
<g transform="translate(590.625,296.625) scale(3.605)"><rect width="6" height="6"/></g>
<g transform="translate(611.625,296.625) scale(3.605)"><rect width="6" height="6"/></g>
<g transform="translate(695.625,296.625) scale(3.605)"><rect width="6" height="6"/></g>
<g transform="translate(737.625,296.625) scale(3.605)"><rect width="6" height="6"/></g>
<g transform="translate(758.625,296.625) scale(3.605)"><rect width="6" height="6"/></g>
<g transform="translate(779.625,296.625) scale(3.605)"><rect width="6" height="6"/></g>
<g transform="translate(800.625,296.625) scale(3.605)"><rect width="6" height="6"/></g>
<g transform="translate(821.625,296.625) scale(3.605)"><rect width="6" height="6"/></g>
<g transform="translate(842.625,296.625) scale(3.605)"><rect width="6" height="6"/></g>
<g transform="translate(863.625,296.625) scale(3.605)"><rect width="6" height="6"/></g>
<g transform="translate(905.625,296.625) scale(3.605)"><rect width="6" height="6"/></g>
<g transform="translate(926.625,296.625) scale(3.605)"><rect width="6" height="6"/></g>
<g transform="translate(947.625,296.625) scale(3.605)"><rect width="6" height="6"/></g>
<g transform="translate(107.625,317.625) scale(3.605)"><rect width="6" height="6"/></g>
<g transform="translate(170.625,317.625) scale(3.605)"><rect width="6" height="6"/></g>
<g transform="translate(191.625,317.625) scale(3.605)"><rect width="6" height="6"/></g>
<g transform="translate(233.625,317.625) scale(3.605)"><rect width="6" height="6"/></g>
<g transform="translate(254.625,317.625) scale(3.605)"><rect width="6" height="6"/></g>
<g transform="translate(275.625,317.625) scale(3.605)"><rect width="6" height="6"/></g>
<g transform="translate(296.625,317.625) scale(3.605)"><rect width="6" height="6"/></g>
<g transform="translate(338.625,317.625) scale(3.605)"><rect width="6" height="6"/></g>
<g transform="translate(359.625,317.625) scale(3.605)"><rect width="6" height="6"/></g>
<g transform="translate(401.625,317.625) scale(3.605)"><rect width="6" height="6"/></g>
<g transform="translate(422.625,317.625) scale(3.605)"><rect width="6" height="6"/></g>
<g transform="translate(485.625,317.625) scale(3.605)"><rect width="6" height="6"/></g>
<g transform="translate(548.625,317.625) scale(3.605)"><rect width="6" height="6"/></g>
<g transform="translate(632.625,317.625) scale(3.605)"><rect width="6" height="6"/></g>
<g transform="translate(674.625,317.625) scale(3.605)"><rect width="6" height="6"/></g>
<g transform="translate(695.625,317.625) scale(3.605)"><rect width="6" height="6"/></g>
<g transform="translate(716.625,317.625) scale(3.605)"><rect width="6" height="6"/></g>
<g transform="translate(779.625,317.625) scale(3.605)"><rect width="6" height="6"/></g>
<g transform="translate(800.625,317.625) scale(3.605)"><rect width="6" height="6"/></g>
<g transform="translate(821.625,317.625) scale(3.605)"><rect width="6" height="6"/></g>
<g transform="translate(842.625,317.625) scale(3.605)"><rect width="6" height="6"/></g>
<g transform="translate(863.625,317.625) scale(3.605)"><rect width="6" height="6"/></g>
<g transform="translate(107.625,338.625) scale(3.605)"><rect width="6" height="6"/></g>
<g transform="translate(128.625,338.625) scale(3.605)"><rect width="6" height="6"/></g>
<g transform="translate(149.625,338.625) scale(3.605)"><rect width="6" height="6"/></g>
<g transform="translate(191.625,338.625) scale(3.605)"><rect width="6" height="6"/></g>
<g transform="translate(212.625,338.625) scale(3.605)"><rect width="6" height="6"/></g>
<g transform="translate(275.625,338.625) scale(3.605)"><rect width="6" height="6"/></g>
<g transform="translate(296.625,338.625) scale(3.605)"><rect width="6" height="6"/></g>
<g transform="translate(380.625,338.625) scale(3.605)"><rect width="6" height="6"/></g>
<g transform="translate(401.625,338.625) scale(3.605)"><rect width="6" height="6"/></g>
<g transform="translate(422.625,338.625) scale(3.605)"><rect width="6" height="6"/></g>
<g transform="translate(443.625,338.625) scale(3.605)"><rect width="6" height="6"/></g>
<g transform="translate(527.625,338.625) scale(3.605)"><rect width="6" height="6"/></g>
<g transform="translate(548.625,338.625) scale(3.605)"><rect width="6" height="6"/></g>
<g transform="translate(569.625,338.625) scale(3.605)"><rect width="6" height="6"/></g>
<g transform="translate(674.625,338.625) scale(3.605)"><rect width="6" height="6"/></g>
<g transform="translate(695.625,338.625) scale(3.605)"><rect width="6" height="6"/></g>
<g transform="translate(758.625,338.625) scale(3.605)"><rect width="6" height="6"/></g>
<g transform="translate(779.625,338.625) scale(3.605)"><rect width="6" height="6"/></g>
<g transform="translate(842.625,338.625) scale(3.605)"><rect width="6" height="6"/></g>
<g transform="translate(884.625,338.625) scale(3.605)"><rect width="6" height="6"/></g>
<g transform="translate(128.625,359.625) scale(3.605)"><rect width="6" height="6"/></g>
<g transform="translate(149.625,359.625) scale(3.605)"><rect width="6" height="6"/></g>
<g transform="translate(191.625,359.625) scale(3.605)"><rect width="6" height="6"/></g>
<g transform="translate(233.625,359.625) scale(3.605)"><rect width="6" height="6"/></g>
<g transform="translate(275.625,359.625) scale(3.605)"><rect width="6" height="6"/></g>
<g transform="translate(338.625,359.625) scale(3.605)"><rect width="6" height="6"/></g>
<g transform="translate(359.625,359.625) scale(3.605)"><rect width="6" height="6"/></g>
<g transform="translate(380.625,359.625) scale(3.605)"><rect width="6" height="6"/></g>
<g transform="translate(443.625,359.625) scale(3.605)"><rect width="6" height="6"/></g>
<g transform="translate(464.625,359.625) scale(3.605)"><rect width="6" height="6"/></g>
<g transform="translate(569.625,359.625) scale(3.605)"><rect width="6" height="6"/></g>
<g transform="translate(590.625,359.625) scale(3.605)"><rect width="6" height="6"/></g>
<g transform="translate(611.625,359.625) scale(3.605)"><rect width="6" height="6"/></g>
<g transform="translate(632.625,359.625) scale(3.605)"><rect width="6" height="6"/></g>
<g transform="translate(653.625,359.625) scale(3.605)"><rect width="6" height="6"/></g>
<g transform="translate(674.625,359.625) scale(3.605)"><rect width="6" height="6"/></g>
<g transform="translate(695.625,359.625) scale(3.605)"><rect width="6" height="6"/></g>
<g transform="translate(716.625,359.625) scale(3.605)"><rect width="6" height="6"/></g>
<g transform="translate(758.625,359.625) scale(3.605)"><rect width="6" height="6"/></g>
<g transform="translate(779.625,359.625) scale(3.605)"><rect width="6" height="6"/></g>
<g transform="translate(884.625,359.625) scale(3.605)"><rect width="6" height="6"/></g>
<g transform="translate(905.625,359.625) scale(3.605)"><rect width="6" height="6"/></g>
<g transform="translate(149.625,380.625) scale(3.605)"><rect width="6" height="6"/></g>
<g transform="translate(170.625,380.625) scale(3.605)"><rect width="6" height="6"/></g>
<g transform="translate(212.625,380.625) scale(3.605)"><rect width="6" height="6"/></g>
<g transform="translate(254.625,380.625) scale(3.605)"><rect width="6" height="6"/></g>
<g transform="translate(275.625,380.625) scale(3.605)"><rect width="6" height="6"/></g>
<g transform="translate(296.625,380.625) scale(3.605)"><rect width="6" height="6"/></g>
<g transform="translate(317.625,380.625) scale(3.605)"><rect width="6" height="6"/></g>
<g transform="translate(338.625,380.625) scale(3.605)"><rect width="6" height="6"/></g>
<g transform="translate(359.625,380.625) scale(3.605)"><rect width="6" height="6"/></g>
<g transform="translate(401.625,380.625) scale(3.605)"><rect width="6" height="6"/></g>
<g transform="translate(422.625,380.625) scale(3.605)"><rect width="6" height="6"/></g>
<g transform="translate(443.625,380.625) scale(3.605)"><rect width="6" height="6"/></g>
<g transform="translate(485.625,380.625) scale(3.605)"><rect width="6" height="6"/></g>
<g transform="translate(611.625,380.625) scale(3.605)"><rect width="6" height="6"/></g>
<g transform="translate(737.625,380.625) scale(3.605)"><rect width="6" height="6"/></g>
<g transform="translate(758.625,380.625) scale(3.605)"><rect width="6" height="6"/></g>
<g transform="translate(779.625,380.625) scale(3.605)"><rect width="6" height="6"/></g>
<g transform="translate(800.625,380.625) scale(3.605)"><rect width="6" height="6"/></g>
<g transform="translate(821.625,380.625) scale(3.605)"><rect width="6" height="6"/></g>
<g transform="translate(842.625,380.625) scale(3.605)"><rect width="6" height="6"/></g>
<g transform="translate(863.625,380.625) scale(3.605)"><rect width="6" height="6"/></g>
<g transform="translate(884.625,380.625) scale(3.605)"><rect width="6" height="6"/></g>
<g transform="translate(905.625,380.625) scale(3.605)"><rect width="6" height="6"/></g>
<g transform="translate(926.625,380.625) scale(3.605)"><rect width="6" height="6"/></g>
<g transform="translate(947.625,380.625) scale(3.605)"><rect width="6" height="6"/></g>
<g transform="translate(128.625,401.625) scale(3.605)"><rect width="6" height="6"/></g>
<g transform="translate(149.625,401.625) scale(3.605)"><rect width="6" height="6"/></g>
<g transform="translate(170.625,401.625) scale(3.605)"><rect width="6" height="6"/></g>
<g transform="translate(191.625,401.625) scale(3.605)"><rect width="6" height="6"/></g>
<g transform="translate(233.625,401.625) scale(3.605)"><rect width="6" height="6"/></g>
<g transform="translate(275.625,401.625) scale(3.605)"><rect width="6" height="6"/></g>
<g transform="translate(380.625,401.625) scale(3.605)"><rect width="6" height="6"/></g>
<g transform="translate(422.625,401.625) scale(3.605)"><rect width="6" height="6"/></g>
<g transform="translate(569.625,401.625) scale(3.605)"><rect width="6" height="6"/></g>
<g transform="translate(653.625,401.625) scale(3.605)"><rect width="6" height="6"/></g>
<g transform="translate(674.625,401.625) scale(3.605)"><rect width="6" height="6"/></g>
<g transform="translate(779.625,401.625) scale(3.605)"><rect width="6" height="6"/></g>
<g transform="translate(800.625,401.625) scale(3.605)"><rect width="6" height="6"/></g>
<g transform="translate(842.625,401.625) scale(3.605)"><rect width="6" height="6"/></g>
<g transform="translate(884.625,401.625) scale(3.605)"><rect width="6" height="6"/></g>
<g transform="translate(926.625,401.625) scale(3.605)"><rect width="6" height="6"/></g>
<g transform="translate(107.625,422.625) scale(3.605)"><rect width="6" height="6"/></g>
<g transform="translate(128.625,422.625) scale(3.605)"><rect width="6" height="6"/></g>
<g transform="translate(191.625,422.625) scale(3.605)"><rect width="6" height="6"/></g>
<g transform="translate(275.625,422.625) scale(3.605)"><rect width="6" height="6"/></g>
<g transform="translate(338.625,422.625) scale(3.605)"><rect width="6" height="6"/></g>
<g transform="translate(422.625,422.625) scale(3.605)"><rect width="6" height="6"/></g>
<g transform="translate(527.625,422.625) scale(3.605)"><rect width="6" height="6"/></g>
<g transform="translate(548.625,422.625) scale(3.605)"><rect width="6" height="6"/></g>
<g transform="translate(569.625,422.625) scale(3.605)"><rect width="6" height="6"/></g>
<g transform="translate(611.625,422.625) scale(3.605)"><rect width="6" height="6"/></g>
<g transform="translate(674.625,422.625) scale(3.605)"><rect width="6" height="6"/></g>
<g transform="translate(737.625,422.625) scale(3.605)"><rect width="6" height="6"/></g>
<g transform="translate(779.625,422.625) scale(3.605)"><rect width="6" height="6"/></g>
<g transform="translate(821.625,422.625) scale(3.605)"><rect width="6" height="6"/></g>
<g transform="translate(863.625,422.625) scale(3.605)"><rect width="6" height="6"/></g>
<g transform="translate(884.625,422.625) scale(3.605)"><rect width="6" height="6"/></g>
<g transform="translate(947.625,422.625) scale(3.605)"><rect width="6" height="6"/></g>
<g transform="translate(128.625,443.625) scale(3.605)"><rect width="6" height="6"/></g>
<g transform="translate(149.625,443.625) scale(3.605)"><rect width="6" height="6"/></g>
<g transform="translate(212.625,443.625) scale(3.605)"><rect width="6" height="6"/></g>
<g transform="translate(233.625,443.625) scale(3.605)"><rect width="6" height="6"/></g>
<g transform="translate(275.625,443.625) scale(3.605)"><rect width="6" height="6"/></g>
<g transform="translate(317.625,443.625) scale(3.605)"><rect width="6" height="6"/></g>
<g transform="translate(380.625,443.625) scale(3.605)"><rect width="6" height="6"/></g>
<g transform="translate(401.625,443.625) scale(3.605)"><rect width="6" height="6"/></g>
<g transform="translate(443.625,443.625) scale(3.605)"><rect width="6" height="6"/></g>
<g transform="translate(464.625,443.625) scale(3.605)"><rect width="6" height="6"/></g>
<g transform="translate(485.625,443.625) scale(3.605)"><rect width="6" height="6"/></g>
<g transform="translate(569.625,443.625) scale(3.605)"><rect width="6" height="6"/></g>
<g transform="translate(590.625,443.625) scale(3.605)"><rect width="6" height="6"/></g>
<g transform="translate(611.625,443.625) scale(3.605)"><rect width="6" height="6"/></g>
<g transform="translate(632.625,443.625) scale(3.605)"><rect width="6" height="6"/></g>
<g transform="translate(653.625,443.625) scale(3.605)"><rect width="6" height="6"/></g>
<g transform="translate(674.625,443.625) scale(3.605)"><rect width="6" height="6"/></g>
<g transform="translate(716.625,443.625) scale(3.605)"><rect width="6" height="6"/></g>
<g transform="translate(800.625,443.625) scale(3.605)"><rect width="6" height="6"/></g>
<g transform="translate(842.625,443.625) scale(3.605)"><rect width="6" height="6"/></g>
<g transform="translate(884.625,443.625) scale(3.605)"><rect width="6" height="6"/></g>
<g transform="translate(905.625,443.625) scale(3.605)"><rect width="6" height="6"/></g>
<g transform="translate(926.625,443.625) scale(3.605)"><rect width="6" height="6"/></g>
<g transform="translate(107.625,464.625) scale(3.605)"><rect width="6" height="6"/></g>
<g transform="translate(149.625,464.625) scale(3.605)"><rect width="6" height="6"/></g>
<g transform="translate(170.625,464.625) scale(3.605)"><rect width="6" height="6"/></g>
<g transform="translate(191.625,464.625) scale(3.605)"><rect width="6" height="6"/></g>
<g transform="translate(338.625,464.625) scale(3.605)"><rect width="6" height="6"/></g>
<g transform="translate(359.625,464.625) scale(3.605)"><rect width="6" height="6"/></g>
<g transform="translate(401.625,464.625) scale(3.605)"><rect width="6" height="6"/></g>
<g transform="translate(464.625,464.625) scale(3.605)"><rect width="6" height="6"/></g>
<g transform="translate(485.625,464.625) scale(3.605)"><rect width="6" height="6"/></g>
<g transform="translate(506.625,464.625) scale(3.605)"><rect width="6" height="6"/></g>
<g transform="translate(527.625,464.625) scale(3.605)"><rect width="6" height="6"/></g>
<g transform="translate(590.625,464.625) scale(3.605)"><rect width="6" height="6"/></g>
<g transform="translate(611.625,464.625) scale(3.605)"><rect width="6" height="6"/></g>
<g transform="translate(737.625,464.625) scale(3.605)"><rect width="6" height="6"/></g>
<g transform="translate(758.625,464.625) scale(3.605)"><rect width="6" height="6"/></g>
<g transform="translate(779.625,464.625) scale(3.605)"><rect width="6" height="6"/></g>
<g transform="translate(821.625,464.625) scale(3.605)"><rect width="6" height="6"/></g>
<g transform="translate(842.625,464.625) scale(3.605)"><rect width="6" height="6"/></g>
<g transform="translate(863.625,464.625) scale(3.605)"><rect width="6" height="6"/></g>
<g transform="translate(884.625,464.625) scale(3.605)"><rect width="6" height="6"/></g>
<g transform="translate(905.625,464.625) scale(3.605)"><rect width="6" height="6"/></g>
<g transform="translate(926.625,464.625) scale(3.605)"><rect width="6" height="6"/></g>
<g transform="translate(947.625,464.625) scale(3.605)"><rect width="6" height="6"/></g>
<g transform="translate(128.625,485.625) scale(3.605)"><rect width="6" height="6"/></g>
<g transform="translate(149.625,485.625) scale(3.605)"><rect width="6" height="6"/></g>
<g transform="translate(170.625,485.625) scale(3.605)"><rect width="6" height="6"/></g>
<g transform="translate(233.625,485.625) scale(3.605)"><rect width="6" height="6"/></g>
<g transform="translate(254.625,485.625) scale(3.605)"><rect width="6" height="6"/></g>
<g transform="translate(296.625,485.625) scale(3.605)"><rect width="6" height="6"/></g>
<g transform="translate(422.625,485.625) scale(3.605)"><rect width="6" height="6"/></g>
<g transform="translate(464.625,485.625) scale(3.605)"><rect width="6" height="6"/></g>
<g transform="translate(485.625,485.625) scale(3.605)"><rect width="6" height="6"/></g>
<g transform="translate(548.625,485.625) scale(3.605)"><rect width="6" height="6"/></g>
<g transform="translate(632.625,485.625) scale(3.605)"><rect width="6" height="6"/></g>
<g transform="translate(653.625,485.625) scale(3.605)"><rect width="6" height="6"/></g>
<g transform="translate(674.625,485.625) scale(3.605)"><rect width="6" height="6"/></g>
<g transform="translate(695.625,485.625) scale(3.605)"><rect width="6" height="6"/></g>
<g transform="translate(779.625,485.625) scale(3.605)"><rect width="6" height="6"/></g>
<g transform="translate(800.625,485.625) scale(3.605)"><rect width="6" height="6"/></g>
<g transform="translate(821.625,485.625) scale(3.605)"><rect width="6" height="6"/></g>
<g transform="translate(863.625,485.625) scale(3.605)"><rect width="6" height="6"/></g>
<g transform="translate(884.625,485.625) scale(3.605)"><rect width="6" height="6"/></g>
<g transform="translate(926.625,485.625) scale(3.605)"><rect width="6" height="6"/></g>
<g transform="translate(107.625,506.625) scale(3.605)"><rect width="6" height="6"/></g>
<g transform="translate(128.625,506.625) scale(3.605)"><rect width="6" height="6"/></g>
<g transform="translate(149.625,506.625) scale(3.605)"><rect width="6" height="6"/></g>
<g transform="translate(275.625,506.625) scale(3.605)"><rect width="6" height="6"/></g>
<g transform="translate(296.625,506.625) scale(3.605)"><rect width="6" height="6"/></g>
<g transform="translate(338.625,506.625) scale(3.605)"><rect width="6" height="6"/></g>
<g transform="translate(401.625,506.625) scale(3.605)"><rect width="6" height="6"/></g>
<g transform="translate(422.625,506.625) scale(3.605)"><rect width="6" height="6"/></g>
<g transform="translate(443.625,506.625) scale(3.605)"><rect width="6" height="6"/></g>
<g transform="translate(485.625,506.625) scale(3.605)"><rect width="6" height="6"/></g>
<g transform="translate(527.625,506.625) scale(3.605)"><rect width="6" height="6"/></g>
<g transform="translate(569.625,506.625) scale(3.605)"><rect width="6" height="6"/></g>
<g transform="translate(653.625,506.625) scale(3.605)"><rect width="6" height="6"/></g>
<g transform="translate(737.625,506.625) scale(3.605)"><rect width="6" height="6"/></g>
<g transform="translate(758.625,506.625) scale(3.605)"><rect width="6" height="6"/></g>
<g transform="translate(800.625,506.625) scale(3.605)"><rect width="6" height="6"/></g>
<g transform="translate(863.625,506.625) scale(3.605)"><rect width="6" height="6"/></g>
<g transform="translate(884.625,506.625) scale(3.605)"><rect width="6" height="6"/></g>
<g transform="translate(926.625,506.625) scale(3.605)"><rect width="6" height="6"/></g>
<g transform="translate(947.625,506.625) scale(3.605)"><rect width="6" height="6"/></g>
<g transform="translate(170.625,527.625) scale(3.605)"><rect width="6" height="6"/></g>
<g transform="translate(191.625,527.625) scale(3.605)"><rect width="6" height="6"/></g>
<g transform="translate(233.625,527.625) scale(3.605)"><rect width="6" height="6"/></g>
<g transform="translate(296.625,527.625) scale(3.605)"><rect width="6" height="6"/></g>
<g transform="translate(359.625,527.625) scale(3.605)"><rect width="6" height="6"/></g>
<g transform="translate(401.625,527.625) scale(3.605)"><rect width="6" height="6"/></g>
<g transform="translate(422.625,527.625) scale(3.605)"><rect width="6" height="6"/></g>
<g transform="translate(443.625,527.625) scale(3.605)"><rect width="6" height="6"/></g>
<g transform="translate(485.625,527.625) scale(3.605)"><rect width="6" height="6"/></g>
<g transform="translate(527.625,527.625) scale(3.605)"><rect width="6" height="6"/></g>
<g transform="translate(548.625,527.625) scale(3.605)"><rect width="6" height="6"/></g>
<g transform="translate(611.625,527.625) scale(3.605)"><rect width="6" height="6"/></g>
<g transform="translate(674.625,527.625) scale(3.605)"><rect width="6" height="6"/></g>
<g transform="translate(716.625,527.625) scale(3.605)"><rect width="6" height="6"/></g>
<g transform="translate(800.625,527.625) scale(3.605)"><rect width="6" height="6"/></g>
<g transform="translate(905.625,527.625) scale(3.605)"><rect width="6" height="6"/></g>
<g transform="translate(926.625,527.625) scale(3.605)"><rect width="6" height="6"/></g>
<g transform="translate(107.625,548.625) scale(3.605)"><rect width="6" height="6"/></g>
<g transform="translate(149.625,548.625) scale(3.605)"><rect width="6" height="6"/></g>
<g transform="translate(170.625,548.625) scale(3.605)"><rect width="6" height="6"/></g>
<g transform="translate(254.625,548.625) scale(3.605)"><rect width="6" height="6"/></g>
<g transform="translate(296.625,548.625) scale(3.605)"><rect width="6" height="6"/></g>
<g transform="translate(359.625,548.625) scale(3.605)"><rect width="6" height="6"/></g>
<g transform="translate(422.625,548.625) scale(3.605)"><rect width="6" height="6"/></g>
<g transform="translate(506.625,548.625) scale(3.605)"><rect width="6" height="6"/></g>
<g transform="translate(527.625,548.625) scale(3.605)"><rect width="6" height="6"/></g>
<g transform="translate(590.625,548.625) scale(3.605)"><rect width="6" height="6"/></g>
<g transform="translate(611.625,548.625) scale(3.605)"><rect width="6" height="6"/></g>
<g transform="translate(632.625,548.625) scale(3.605)"><rect width="6" height="6"/></g>
<g transform="translate(653.625,548.625) scale(3.605)"><rect width="6" height="6"/></g>
<g transform="translate(695.625,548.625) scale(3.605)"><rect width="6" height="6"/></g>
<g transform="translate(758.625,548.625) scale(3.605)"><rect width="6" height="6"/></g>
<g transform="translate(779.625,548.625) scale(3.605)"><rect width="6" height="6"/></g>
<g transform="translate(800.625,548.625) scale(3.605)"><rect width="6" height="6"/></g>
<g transform="translate(821.625,548.625) scale(3.605)"><rect width="6" height="6"/></g>
<g transform="translate(842.625,548.625) scale(3.605)"><rect width="6" height="6"/></g>
<g transform="translate(863.625,548.625) scale(3.605)"><rect width="6" height="6"/></g>
<g transform="translate(926.625,548.625) scale(3.605)"><rect width="6" height="6"/></g>
<g transform="translate(947.625,548.625) scale(3.605)"><rect width="6" height="6"/></g>
<g transform="translate(128.625,569.625) scale(3.605)"><rect width="6" height="6"/></g>
<g transform="translate(149.625,569.625) scale(3.605)"><rect width="6" height="6"/></g>
<g transform="translate(212.625,569.625) scale(3.605)"><rect width="6" height="6"/></g>
<g transform="translate(233.625,569.625) scale(3.605)"><rect width="6" height="6"/></g>
<g transform="translate(275.625,569.625) scale(3.605)"><rect width="6" height="6"/></g>
<g transform="translate(338.625,569.625) scale(3.605)"><rect width="6" height="6"/></g>
<g transform="translate(380.625,569.625) scale(3.605)"><rect width="6" height="6"/></g>
<g transform="translate(401.625,569.625) scale(3.605)"><rect width="6" height="6"/></g>
<g transform="translate(464.625,569.625) scale(3.605)"><rect width="6" height="6"/></g>
<g transform="translate(527.625,569.625) scale(3.605)"><rect width="6" height="6"/></g>
<g transform="translate(569.625,569.625) scale(3.605)"><rect width="6" height="6"/></g>
<g transform="translate(632.625,569.625) scale(3.605)"><rect width="6" height="6"/></g>
<g transform="translate(653.625,569.625) scale(3.605)"><rect width="6" height="6"/></g>
<g transform="translate(674.625,569.625) scale(3.605)"><rect width="6" height="6"/></g>
<g transform="translate(695.625,569.625) scale(3.605)"><rect width="6" height="6"/></g>
<g transform="translate(779.625,569.625) scale(3.605)"><rect width="6" height="6"/></g>
<g transform="translate(800.625,569.625) scale(3.605)"><rect width="6" height="6"/></g>
<g transform="translate(821.625,569.625) scale(3.605)"><rect width="6" height="6"/></g>
<g transform="translate(842.625,569.625) scale(3.605)"><rect width="6" height="6"/></g>
<g transform="translate(863.625,569.625) scale(3.605)"><rect width="6" height="6"/></g>
<g transform="translate(884.625,569.625) scale(3.605)"><rect width="6" height="6"/></g>
<g transform="translate(905.625,569.625) scale(3.605)"><rect width="6" height="6"/></g>
<g transform="translate(128.625,590.625) scale(3.605)"><rect width="6" height="6"/></g>
<g transform="translate(191.625,590.625) scale(3.605)"><rect width="6" height="6"/></g>
<g transform="translate(212.625,590.625) scale(3.605)"><rect width="6" height="6"/></g>
<g transform="translate(317.625,590.625) scale(3.605)"><rect width="6" height="6"/></g>
<g transform="translate(380.625,590.625) scale(3.605)"><rect width="6" height="6"/></g>
<g transform="translate(422.625,590.625) scale(3.605)"><rect width="6" height="6"/></g>
<g transform="translate(443.625,590.625) scale(3.605)"><rect width="6" height="6"/></g>
<g transform="translate(485.625,590.625) scale(3.605)"><rect width="6" height="6"/></g>
<g transform="translate(527.625,590.625) scale(3.605)"><rect width="6" height="6"/></g>
<g transform="translate(548.625,590.625) scale(3.605)"><rect width="6" height="6"/></g>
<g transform="translate(590.625,590.625) scale(3.605)"><rect width="6" height="6"/></g>
<g transform="translate(674.625,590.625) scale(3.605)"><rect width="6" height="6"/></g>
<g transform="translate(695.625,590.625) scale(3.605)"><rect width="6" height="6"/></g>
<g transform="translate(779.625,590.625) scale(3.605)"><rect width="6" height="6"/></g>
<g transform="translate(842.625,590.625) scale(3.605)"><rect width="6" height="6"/></g>
<g transform="translate(884.625,590.625) scale(3.605)"><rect width="6" height="6"/></g>
<g transform="translate(926.625,590.625) scale(3.605)"><rect width="6" height="6"/></g>
<g transform="translate(170.625,611.625) scale(3.605)"><rect width="6" height="6"/></g>
<g transform="translate(191.625,611.625) scale(3.605)"><rect width="6" height="6"/></g>
<g transform="translate(233.625,611.625) scale(3.605)"><rect width="6" height="6"/></g>
<g transform="translate(254.625,611.625) scale(3.605)"><rect width="6" height="6"/></g>
<g transform="translate(275.625,611.625) scale(3.605)"><rect width="6" height="6"/></g>
<g transform="translate(296.625,611.625) scale(3.605)"><rect width="6" height="6"/></g>
<g transform="translate(317.625,611.625) scale(3.605)"><rect width="6" height="6"/></g>
<g transform="translate(359.625,611.625) scale(3.605)"><rect width="6" height="6"/></g>
<g transform="translate(401.625,611.625) scale(3.605)"><rect width="6" height="6"/></g>
<g transform="translate(464.625,611.625) scale(3.605)"><rect width="6" height="6"/></g>
<g transform="translate(569.625,611.625) scale(3.605)"><rect width="6" height="6"/></g>
<g transform="translate(611.625,611.625) scale(3.605)"><rect width="6" height="6"/></g>
<g transform="translate(632.625,611.625) scale(3.605)"><rect width="6" height="6"/></g>
<g transform="translate(653.625,611.625) scale(3.605)"><rect width="6" height="6"/></g>
<g transform="translate(674.625,611.625) scale(3.605)"><rect width="6" height="6"/></g>
<g transform="translate(695.625,611.625) scale(3.605)"><rect width="6" height="6"/></g>
<g transform="translate(716.625,611.625) scale(3.605)"><rect width="6" height="6"/></g>
<g transform="translate(905.625,611.625) scale(3.605)"><rect width="6" height="6"/></g>
<g transform="translate(947.625,611.625) scale(3.605)"><rect width="6" height="6"/></g>
<g transform="translate(170.625,632.625) scale(3.605)"><rect width="6" height="6"/></g>
<g transform="translate(254.625,632.625) scale(3.605)"><rect width="6" height="6"/></g>
<g transform="translate(275.625,632.625) scale(3.605)"><rect width="6" height="6"/></g>
<g transform="translate(296.625,632.625) scale(3.605)"><rect width="6" height="6"/></g>
<g transform="translate(317.625,632.625) scale(3.605)"><rect width="6" height="6"/></g>
<g transform="translate(359.625,632.625) scale(3.605)"><rect width="6" height="6"/></g>
<g transform="translate(443.625,632.625) scale(3.605)"><rect width="6" height="6"/></g>
<g transform="translate(464.625,632.625) scale(3.605)"><rect width="6" height="6"/></g>
<g transform="translate(485.625,632.625) scale(3.605)"><rect width="6" height="6"/></g>
<g transform="translate(506.625,632.625) scale(3.605)"><rect width="6" height="6"/></g>
<g transform="translate(527.625,632.625) scale(3.605)"><rect width="6" height="6"/></g>
<g transform="translate(590.625,632.625) scale(3.605)"><rect width="6" height="6"/></g>
<g transform="translate(632.625,632.625) scale(3.605)"><rect width="6" height="6"/></g>
<g transform="translate(695.625,632.625) scale(3.605)"><rect width="6" height="6"/></g>
<g transform="translate(716.625,632.625) scale(3.605)"><rect width="6" height="6"/></g>
<g transform="translate(737.625,632.625) scale(3.605)"><rect width="6" height="6"/></g>
<g transform="translate(758.625,632.625) scale(3.605)"><rect width="6" height="6"/></g>
<g transform="translate(800.625,632.625) scale(3.605)"><rect width="6" height="6"/></g>
<g transform="translate(821.625,632.625) scale(3.605)"><rect width="6" height="6"/></g>
<g transform="translate(863.625,632.625) scale(3.605)"><rect width="6" height="6"/></g>
<g transform="translate(884.625,632.625) scale(3.605)"><rect width="6" height="6"/></g>
<g transform="translate(926.625,632.625) scale(3.605)"><rect width="6" height="6"/></g>
<g transform="translate(947.625,632.625) scale(3.605)"><rect width="6" height="6"/></g>
<g transform="translate(107.625,653.625) scale(3.605)"><rect width="6" height="6"/></g>
<g transform="translate(170.625,653.625) scale(3.605)"><rect width="6" height="6"/></g>
<g transform="translate(233.625,653.625) scale(3.605)"><rect width="6" height="6"/></g>
<g transform="translate(275.625,653.625) scale(3.605)"><rect width="6" height="6"/></g>
<g transform="translate(317.625,653.625) scale(3.605)"><rect width="6" height="6"/></g>
<g transform="translate(359.625,653.625) scale(3.605)"><rect width="6" height="6"/></g>
<g transform="translate(401.625,653.625) scale(3.605)"><rect width="6" height="6"/></g>
<g transform="translate(422.625,653.625) scale(3.605)"><rect width="6" height="6"/></g>
<g transform="translate(443.625,653.625) scale(3.605)"><rect width="6" height="6"/></g>
<g transform="translate(464.625,653.625) scale(3.605)"><rect width="6" height="6"/></g>
<g transform="translate(548.625,653.625) scale(3.605)"><rect width="6" height="6"/></g>
<g transform="translate(569.625,653.625) scale(3.605)"><rect width="6" height="6"/></g>
<g transform="translate(674.625,653.625) scale(3.605)"><rect width="6" height="6"/></g>
<g transform="translate(695.625,653.625) scale(3.605)"><rect width="6" height="6"/></g>
<g transform="translate(737.625,653.625) scale(3.605)"><rect width="6" height="6"/></g>
<g transform="translate(779.625,653.625) scale(3.605)"><rect width="6" height="6"/></g>
<g transform="translate(821.625,653.625) scale(3.605)"><rect width="6" height="6"/></g>
<g transform="translate(107.625,674.625) scale(3.605)"><rect width="6" height="6"/></g>
<g transform="translate(149.625,674.625) scale(3.605)"><rect width="6" height="6"/></g>
<g transform="translate(254.625,674.625) scale(3.605)"><rect width="6" height="6"/></g>
<g transform="translate(296.625,674.625) scale(3.605)"><rect width="6" height="6"/></g>
<g transform="translate(380.625,674.625) scale(3.605)"><rect width="6" height="6"/></g>
<g transform="translate(422.625,674.625) scale(3.605)"><rect width="6" height="6"/></g>
<g transform="translate(443.625,674.625) scale(3.605)"><rect width="6" height="6"/></g>
<g transform="translate(506.625,674.625) scale(3.605)"><rect width="6" height="6"/></g>
<g transform="translate(548.625,674.625) scale(3.605)"><rect width="6" height="6"/></g>
<g transform="translate(590.625,674.625) scale(3.605)"><rect width="6" height="6"/></g>
<g transform="translate(653.625,674.625) scale(3.605)"><rect width="6" height="6"/></g>
<g transform="translate(674.625,674.625) scale(3.605)"><rect width="6" height="6"/></g>
<g transform="translate(758.625,674.625) scale(3.605)"><rect width="6" height="6"/></g>
<g transform="translate(779.625,674.625) scale(3.605)"><rect width="6" height="6"/></g>
<g transform="translate(800.625,674.625) scale(3.605)"><rect width="6" height="6"/></g>
<g transform="translate(821.625,674.625) scale(3.605)"><rect width="6" height="6"/></g>
<g transform="translate(842.625,674.625) scale(3.605)"><rect width="6" height="6"/></g>
<g transform="translate(884.625,674.625) scale(3.605)"><rect width="6" height="6"/></g>
<g transform="translate(926.625,674.625) scale(3.605)"><rect width="6" height="6"/></g>
<g transform="translate(107.625,695.625) scale(3.605)"><rect width="6" height="6"/></g>
<g transform="translate(128.625,695.625) scale(3.605)"><rect width="6" height="6"/></g>
<g transform="translate(149.625,695.625) scale(3.605)"><rect width="6" height="6"/></g>
<g transform="translate(170.625,695.625) scale(3.605)"><rect width="6" height="6"/></g>
<g transform="translate(191.625,695.625) scale(3.605)"><rect width="6" height="6"/></g>
<g transform="translate(233.625,695.625) scale(3.605)"><rect width="6" height="6"/></g>
<g transform="translate(317.625,695.625) scale(3.605)"><rect width="6" height="6"/></g>
<g transform="translate(359.625,695.625) scale(3.605)"><rect width="6" height="6"/></g>
<g transform="translate(464.625,695.625) scale(3.605)"><rect width="6" height="6"/></g>
<g transform="translate(569.625,695.625) scale(3.605)"><rect width="6" height="6"/></g>
<g transform="translate(590.625,695.625) scale(3.605)"><rect width="6" height="6"/></g>
<g transform="translate(632.625,695.625) scale(3.605)"><rect width="6" height="6"/></g>
<g transform="translate(653.625,695.625) scale(3.605)"><rect width="6" height="6"/></g>
<g transform="translate(716.625,695.625) scale(3.605)"><rect width="6" height="6"/></g>
<g transform="translate(758.625,695.625) scale(3.605)"><rect width="6" height="6"/></g>
<g transform="translate(779.625,695.625) scale(3.605)"><rect width="6" height="6"/></g>
<g transform="translate(884.625,695.625) scale(3.605)"><rect width="6" height="6"/></g>
<g transform="translate(905.625,695.625) scale(3.605)"><rect width="6" height="6"/></g>
<g transform="translate(107.625,716.625) scale(3.605)"><rect width="6" height="6"/></g>
<g transform="translate(254.625,716.625) scale(3.605)"><rect width="6" height="6"/></g>
<g transform="translate(317.625,716.625) scale(3.605)"><rect width="6" height="6"/></g>
<g transform="translate(401.625,716.625) scale(3.605)"><rect width="6" height="6"/></g>
<g transform="translate(422.625,716.625) scale(3.605)"><rect width="6" height="6"/></g>
<g transform="translate(443.625,716.625) scale(3.605)"><rect width="6" height="6"/></g>
<g transform="translate(464.625,716.625) scale(3.605)"><rect width="6" height="6"/></g>
<g transform="translate(485.625,716.625) scale(3.605)"><rect width="6" height="6"/></g>
<g transform="translate(527.625,716.625) scale(3.605)"><rect width="6" height="6"/></g>
<g transform="translate(590.625,716.625) scale(3.605)"><rect width="6" height="6"/></g>
<g transform="translate(611.625,716.625) scale(3.605)"><rect width="6" height="6"/></g>
<g transform="translate(737.625,716.625) scale(3.605)"><rect width="6" height="6"/></g>
<g transform="translate(758.625,716.625) scale(3.605)"><rect width="6" height="6"/></g>
<g transform="translate(779.625,716.625) scale(3.605)"><rect width="6" height="6"/></g>
<g transform="translate(800.625,716.625) scale(3.605)"><rect width="6" height="6"/></g>
<g transform="translate(821.625,716.625) scale(3.605)"><rect width="6" height="6"/></g>
<g transform="translate(842.625,716.625) scale(3.605)"><rect width="6" height="6"/></g>
<g transform="translate(863.625,716.625) scale(3.605)"><rect width="6" height="6"/></g>
<g transform="translate(884.625,716.625) scale(3.605)"><rect width="6" height="6"/></g>
<g transform="translate(947.625,716.625) scale(3.605)"><rect width="6" height="6"/></g>
<g transform="translate(107.625,737.625) scale(3.605)"><rect width="6" height="6"/></g>
<g transform="translate(149.625,737.625) scale(3.605)"><rect width="6" height="6"/></g>
<g transform="translate(170.625,737.625) scale(3.605)"><rect width="6" height="6"/></g>
<g transform="translate(233.625,737.625) scale(3.605)"><rect width="6" height="6"/></g>
<g transform="translate(296.625,737.625) scale(3.605)"><rect width="6" height="6"/></g>
<g transform="translate(422.625,737.625) scale(3.605)"><rect width="6" height="6"/></g>
<g transform="translate(569.625,737.625) scale(3.605)"><rect width="6" height="6"/></g>
<g transform="translate(611.625,737.625) scale(3.605)"><rect width="6" height="6"/></g>
<g transform="translate(674.625,737.625) scale(3.605)"><rect width="6" height="6"/></g>
<g transform="translate(695.625,737.625) scale(3.605)"><rect width="6" height="6"/></g>
<g transform="translate(800.625,737.625) scale(3.605)"><rect width="6" height="6"/></g>
<g transform="translate(821.625,737.625) scale(3.605)"><rect width="6" height="6"/></g>
<g transform="translate(842.625,737.625) scale(3.605)"><rect width="6" height="6"/></g>
<g transform="translate(863.625,737.625) scale(3.605)"><rect width="6" height="6"/></g>
<g transform="translate(107.625,758.625) scale(3.605)"><rect width="6" height="6"/></g>
<g transform="translate(170.625,758.625) scale(3.605)"><rect width="6" height="6"/></g>
<g transform="translate(191.625,758.625) scale(3.605)"><rect width="6" height="6"/></g>
<g transform="translate(212.625,758.625) scale(3.605)"><rect width="6" height="6"/></g>
<g transform="translate(254.625,758.625) scale(3.605)"><rect width="6" height="6"/></g>
<g transform="translate(275.625,758.625) scale(3.605)"><rect width="6" height="6"/></g>
<g transform="translate(296.625,758.625) scale(3.605)"><rect width="6" height="6"/></g>
<g transform="translate(359.625,758.625) scale(3.605)"><rect width="6" height="6"/></g>
<g transform="translate(401.625,758.625) scale(3.605)"><rect width="6" height="6"/></g>
<g transform="translate(422.625,758.625) scale(3.605)"><rect width="6" height="6"/></g>
<g transform="translate(443.625,758.625) scale(3.605)"><rect width="6" height="6"/></g>
<g transform="translate(548.625,758.625) scale(3.605)"><rect width="6" height="6"/></g>
<g transform="translate(590.625,758.625) scale(3.605)"><rect width="6" height="6"/></g>
<g transform="translate(611.625,758.625) scale(3.605)"><rect width="6" height="6"/></g>
<g transform="translate(653.625,758.625) scale(3.605)"><rect width="6" height="6"/></g>
<g transform="translate(674.625,758.625) scale(3.605)"><rect width="6" height="6"/></g>
<g transform="translate(779.625,758.625) scale(3.605)"><rect width="6" height="6"/></g>
<g transform="translate(800.625,758.625) scale(3.605)"><rect width="6" height="6"/></g>
<g transform="translate(821.625,758.625) scale(3.605)"><rect width="6" height="6"/></g>
<g transform="translate(842.625,758.625) scale(3.605)"><rect width="6" height="6"/></g>
<g transform="translate(863.625,758.625) scale(3.605)"><rect width="6" height="6"/></g>
<g transform="translate(884.625,758.625) scale(3.605)"><rect width="6" height="6"/></g>
<g transform="translate(926.625,758.625) scale(3.605)"><rect width="6" height="6"/></g>
<g transform="translate(947.625,758.625) scale(3.605)"><rect width="6" height="6"/></g>
<g transform="translate(107.625,779.625) scale(3.605)"><rect width="6" height="6"/></g>
<g transform="translate(149.625,779.625) scale(3.605)"><rect width="6" height="6"/></g>
<g transform="translate(170.625,779.625) scale(3.605)"><rect width="6" height="6"/></g>
<g transform="translate(191.625,779.625) scale(3.605)"><rect width="6" height="6"/></g>
<g transform="translate(233.625,779.625) scale(3.605)"><rect width="6" height="6"/></g>
<g transform="translate(254.625,779.625) scale(3.605)"><rect width="6" height="6"/></g>
<g transform="translate(296.625,779.625) scale(3.605)"><rect width="6" height="6"/></g>
<g transform="translate(359.625,779.625) scale(3.605)"><rect width="6" height="6"/></g>
<g transform="translate(380.625,779.625) scale(3.605)"><rect width="6" height="6"/></g>
<g transform="translate(401.625,779.625) scale(3.605)"><rect width="6" height="6"/></g>
<g transform="translate(443.625,779.625) scale(3.605)"><rect width="6" height="6"/></g>
<g transform="translate(464.625,779.625) scale(3.605)"><rect width="6" height="6"/></g>
<g transform="translate(506.625,779.625) scale(3.605)"><rect width="6" height="6"/></g>
<g transform="translate(527.625,779.625) scale(3.605)"><rect width="6" height="6"/></g>
<g transform="translate(611.625,779.625) scale(3.605)"><rect width="6" height="6"/></g>
<g transform="translate(632.625,779.625) scale(3.605)"><rect width="6" height="6"/></g>
<g transform="translate(653.625,779.625) scale(3.605)"><rect width="6" height="6"/></g>
<g transform="translate(695.625,779.625) scale(3.605)"><rect width="6" height="6"/></g>
<g transform="translate(716.625,779.625) scale(3.605)"><rect width="6" height="6"/></g>
<g transform="translate(779.625,779.625) scale(3.605)"><rect width="6" height="6"/></g>
<g transform="translate(800.625,779.625) scale(3.605)"><rect width="6" height="6"/></g>
<g transform="translate(821.625,779.625) scale(3.605)"><rect width="6" height="6"/></g>
<g transform="translate(842.625,779.625) scale(3.605)"><rect width="6" height="6"/></g>
<g transform="translate(863.625,779.625) scale(3.605)"><rect width="6" height="6"/></g>
<g transform="translate(905.625,779.625) scale(3.605)"><rect width="6" height="6"/></g>
<g transform="translate(947.625,779.625) scale(3.605)"><rect width="6" height="6"/></g>
<g transform="translate(275.625,800.625) scale(3.605)"><rect width="6" height="6"/></g>
<g transform="translate(338.625,800.625) scale(3.605)"><rect width="6" height="6"/></g>
<g transform="translate(359.625,800.625) scale(3.605)"><rect width="6" height="6"/></g>
<g transform="translate(464.625,800.625) scale(3.605)"><rect width="6" height="6"/></g>
<g transform="translate(506.625,800.625) scale(3.605)"><rect width="6" height="6"/></g>
<g transform="translate(527.625,800.625) scale(3.605)"><rect width="6" height="6"/></g>
<g transform="translate(590.625,800.625) scale(3.605)"><rect width="6" height="6"/></g>
<g transform="translate(695.625,800.625) scale(3.605)"><rect width="6" height="6"/></g>
<g transform="translate(758.625,800.625) scale(3.605)"><rect width="6" height="6"/></g>
<g transform="translate(779.625,800.625) scale(3.605)"><rect width="6" height="6"/></g>
<g transform="translate(863.625,800.625) scale(3.605)"><rect width="6" height="6"/></g>
<g transform="translate(947.625,800.625) scale(3.605)"><rect width="6" height="6"/></g>
<g transform="translate(296.625,821.625) scale(3.605)"><rect width="6" height="6"/></g>
<g transform="translate(317.625,821.625) scale(3.605)"><rect width="6" height="6"/></g>
<g transform="translate(380.625,821.625) scale(3.605)"><rect width="6" height="6"/></g>
<g transform="translate(422.625,821.625) scale(3.605)"><rect width="6" height="6"/></g>
<g transform="translate(527.625,821.625) scale(3.605)"><rect width="6" height="6"/></g>
<g transform="translate(548.625,821.625) scale(3.605)"><rect width="6" height="6"/></g>
<g transform="translate(569.625,821.625) scale(3.605)"><rect width="6" height="6"/></g>
<g transform="translate(674.625,821.625) scale(3.605)"><rect width="6" height="6"/></g>
<g transform="translate(716.625,821.625) scale(3.605)"><rect width="6" height="6"/></g>
<g transform="translate(737.625,821.625) scale(3.605)"><rect width="6" height="6"/></g>
<g transform="translate(758.625,821.625) scale(3.605)"><rect width="6" height="6"/></g>
<g transform="translate(779.625,821.625) scale(3.605)"><rect width="6" height="6"/></g>
<g transform="translate(821.625,821.625) scale(3.605)"><rect width="6" height="6"/></g>
<g transform="translate(863.625,821.625) scale(3.605)"><rect width="6" height="6"/></g>
<g transform="translate(884.625,821.625) scale(3.605)"><rect width="6" height="6"/></g>
<g transform="translate(275.625,842.625) scale(3.605)"><rect width="6" height="6"/></g>
<g transform="translate(317.625,842.625) scale(3.605)"><rect width="6" height="6"/></g>
<g transform="translate(338.625,842.625) scale(3.605)"><rect width="6" height="6"/></g>
<g transform="translate(380.625,842.625) scale(3.605)"><rect width="6" height="6"/></g>
<g transform="translate(401.625,842.625) scale(3.605)"><rect width="6" height="6"/></g>
<g transform="translate(422.625,842.625) scale(3.605)"><rect width="6" height="6"/></g>
<g transform="translate(443.625,842.625) scale(3.605)"><rect width="6" height="6"/></g>
<g transform="translate(485.625,842.625) scale(3.605)"><rect width="6" height="6"/></g>
<g transform="translate(527.625,842.625) scale(3.605)"><rect width="6" height="6"/></g>
<g transform="translate(548.625,842.625) scale(3.605)"><rect width="6" height="6"/></g>
<g transform="translate(569.625,842.625) scale(3.605)"><rect width="6" height="6"/></g>
<g transform="translate(590.625,842.625) scale(3.605)"><rect width="6" height="6"/></g>
<g transform="translate(611.625,842.625) scale(3.605)"><rect width="6" height="6"/></g>
<g transform="translate(632.625,842.625) scale(3.605)"><rect width="6" height="6"/></g>
<g transform="translate(653.625,842.625) scale(3.605)"><rect width="6" height="6"/></g>
<g transform="translate(737.625,842.625) scale(3.605)"><rect width="6" height="6"/></g>
<g transform="translate(758.625,842.625) scale(3.605)"><rect width="6" height="6"/></g>
<g transform="translate(779.625,842.625) scale(3.605)"><rect width="6" height="6"/></g>
<g transform="translate(863.625,842.625) scale(3.605)"><rect width="6" height="6"/></g>
<g transform="translate(884.625,842.625) scale(3.605)"><rect width="6" height="6"/></g>
<g transform="translate(947.625,842.625) scale(3.605)"><rect width="6" height="6"/></g>
<g transform="translate(275.625,863.625) scale(3.605)"><rect width="6" height="6"/></g>
<g transform="translate(317.625,863.625) scale(3.605)"><rect width="6" height="6"/></g>
<g transform="translate(338.625,863.625) scale(3.605)"><rect width="6" height="6"/></g>
<g transform="translate(359.625,863.625) scale(3.605)"><rect width="6" height="6"/></g>
<g transform="translate(401.625,863.625) scale(3.605)"><rect width="6" height="6"/></g>
<g transform="translate(485.625,863.625) scale(3.605)"><rect width="6" height="6"/></g>
<g transform="translate(506.625,863.625) scale(3.605)"><rect width="6" height="6"/></g>
<g transform="translate(527.625,863.625) scale(3.605)"><rect width="6" height="6"/></g>
<g transform="translate(548.625,863.625) scale(3.605)"><rect width="6" height="6"/></g>
<g transform="translate(569.625,863.625) scale(3.605)"><rect width="6" height="6"/></g>
<g transform="translate(590.625,863.625) scale(3.605)"><rect width="6" height="6"/></g>
<g transform="translate(611.625,863.625) scale(3.605)"><rect width="6" height="6"/></g>
<g transform="translate(632.625,863.625) scale(3.605)"><rect width="6" height="6"/></g>
<g transform="translate(674.625,863.625) scale(3.605)"><rect width="6" height="6"/></g>
<g transform="translate(716.625,863.625) scale(3.605)"><rect width="6" height="6"/></g>
<g transform="translate(779.625,863.625) scale(3.605)"><rect width="6" height="6"/></g>
<g transform="translate(800.625,863.625) scale(3.605)"><rect width="6" height="6"/></g>
<g transform="translate(821.625,863.625) scale(3.605)"><rect width="6" height="6"/></g>
<g transform="translate(842.625,863.625) scale(3.605)"><rect width="6" height="6"/></g>
<g transform="translate(863.625,863.625) scale(3.605)"><rect width="6" height="6"/></g>
<g transform="translate(905.625,863.625) scale(3.605)"><rect width="6" height="6"/></g>
<g transform="translate(947.625,863.625) scale(3.605)"><rect width="6" height="6"/></g>
<g transform="translate(275.625,884.625) scale(3.605)"><rect width="6" height="6"/></g>
<g transform="translate(296.625,884.625) scale(3.605)"><rect width="6" height="6"/></g>
<g transform="translate(317.625,884.625) scale(3.605)"><rect width="6" height="6"/></g>
<g transform="translate(338.625,884.625) scale(3.605)"><rect width="6" height="6"/></g>
<g transform="translate(359.625,884.625) scale(3.605)"><rect width="6" height="6"/></g>
<g transform="translate(401.625,884.625) scale(3.605)"><rect width="6" height="6"/></g>
<g transform="translate(422.625,884.625) scale(3.605)"><rect width="6" height="6"/></g>
<g transform="translate(485.625,884.625) scale(3.605)"><rect width="6" height="6"/></g>
<g transform="translate(506.625,884.625) scale(3.605)"><rect width="6" height="6"/></g>
<g transform="translate(527.625,884.625) scale(3.605)"><rect width="6" height="6"/></g>
<g transform="translate(548.625,884.625) scale(3.605)"><rect width="6" height="6"/></g>
<g transform="translate(569.625,884.625) scale(3.605)"><rect width="6" height="6"/></g>
<g transform="translate(590.625,884.625) scale(3.605)"><rect width="6" height="6"/></g>
<g transform="translate(695.625,884.625) scale(3.605)"><rect width="6" height="6"/></g>
<g transform="translate(779.625,884.625) scale(3.605)"><rect width="6" height="6"/></g>
<g transform="translate(800.625,884.625) scale(3.605)"><rect width="6" height="6"/></g>
<g transform="translate(842.625,884.625) scale(3.605)"><rect width="6" height="6"/></g>
<g transform="translate(905.625,884.625) scale(3.605)"><rect width="6" height="6"/></g>
<g transform="translate(275.625,905.625) scale(3.605)"><rect width="6" height="6"/></g>
<g transform="translate(296.625,905.625) scale(3.605)"><rect width="6" height="6"/></g>
<g transform="translate(317.625,905.625) scale(3.605)"><rect width="6" height="6"/></g>
<g transform="translate(338.625,905.625) scale(3.605)"><rect width="6" height="6"/></g>
<g transform="translate(359.625,905.625) scale(3.605)"><rect width="6" height="6"/></g>
<g transform="translate(401.625,905.625) scale(3.605)"><rect width="6" height="6"/></g>
<g transform="translate(422.625,905.625) scale(3.605)"><rect width="6" height="6"/></g>
<g transform="translate(464.625,905.625) scale(3.605)"><rect width="6" height="6"/></g>
<g transform="translate(485.625,905.625) scale(3.605)"><rect width="6" height="6"/></g>
<g transform="translate(548.625,905.625) scale(3.605)"><rect width="6" height="6"/></g>
<g transform="translate(569.625,905.625) scale(3.605)"><rect width="6" height="6"/></g>
<g transform="translate(611.625,905.625) scale(3.605)"><rect width="6" height="6"/></g>
<g transform="translate(632.625,905.625) scale(3.605)"><rect width="6" height="6"/></g>
<g transform="translate(674.625,905.625) scale(3.605)"><rect width="6" height="6"/></g>
<g transform="translate(758.625,905.625) scale(3.605)"><rect width="6" height="6"/></g>
<g transform="translate(779.625,905.625) scale(3.605)"><rect width="6" height="6"/></g>
<g transform="translate(800.625,905.625) scale(3.605)"><rect width="6" height="6"/></g>
<g transform="translate(821.625,905.625) scale(3.605)"><rect width="6" height="6"/></g>
<g transform="translate(842.625,905.625) scale(3.605)"><rect width="6" height="6"/></g>
<g transform="translate(863.625,905.625) scale(3.605)"><rect width="6" height="6"/></g>
<g transform="translate(296.625,926.625) scale(3.605)"><rect width="6" height="6"/></g>
<g transform="translate(317.625,926.625) scale(3.605)"><rect width="6" height="6"/></g>
<g transform="translate(338.625,926.625) scale(3.605)"><rect width="6" height="6"/></g>
<g transform="translate(359.625,926.625) scale(3.605)"><rect width="6" height="6"/></g>
<g transform="translate(527.625,926.625) scale(3.605)"><rect width="6" height="6"/></g>
<g transform="translate(548.625,926.625) scale(3.605)"><rect width="6" height="6"/></g>
<g transform="translate(569.625,926.625) scale(3.605)"><rect width="6" height="6"/></g>
<g transform="translate(590.625,926.625) scale(3.605)"><rect width="6" height="6"/></g>
<g transform="translate(653.625,926.625) scale(3.605)"><rect width="6" height="6"/></g>
<g transform="translate(695.625,926.625) scale(3.605)"><rect width="6" height="6"/></g>
<g transform="translate(737.625,926.625) scale(3.605)"><rect width="6" height="6"/></g>
<g transform="translate(779.625,926.625) scale(3.605)"><rect width="6" height="6"/></g>
<g transform="translate(821.625,926.625) scale(3.605)"><rect width="6" height="6"/></g>
<g transform="translate(863.625,926.625) scale(3.605)"><rect width="6" height="6"/></g>
<g transform="translate(926.625,926.625) scale(3.605)"><rect width="6" height="6"/></g>
<g transform="translate(275.625,947.625) scale(3.605)"><rect width="6" height="6"/></g>
<g transform="translate(296.625,947.625) scale(3.605)"><rect width="6" height="6"/></g>
<g transform="translate(317.625,947.625) scale(3.605)"><rect width="6" height="6"/></g>
<g transform="translate(359.625,947.625) scale(3.605)"><rect width="6" height="6"/></g>
<g transform="translate(380.625,947.625) scale(3.605)"><rect width="6" height="6"/></g>
<g transform="translate(464.625,947.625) scale(3.605)"><rect width="6" height="6"/></g>
<g transform="translate(485.625,947.625) scale(3.605)"><rect width="6" height="6"/></g>
<g transform="translate(506.625,947.625) scale(3.605)"><rect width="6" height="6"/></g>
<g transform="translate(527.625,947.625) scale(3.605)"><rect width="6" height="6"/></g>
<g transform="translate(569.625,947.625) scale(3.605)"><rect width="6" height="6"/></g>
<g transform="translate(590.625,947.625) scale(3.605)"><rect width="6" height="6"/></g>
<g transform="translate(611.625,947.625) scale(3.605)"><rect width="6" height="6"/></g>
<g transform="translate(632.625,947.625) scale(3.605)"><rect width="6" height="6"/></g>
<g transform="translate(653.625,947.625) scale(3.605)"><rect width="6" height="6"/></g>
<g transform="translate(716.625,947.625) scale(3.605)"><rect width="6" height="6"/></g>
<g transform="translate(758.625,947.625) scale(3.605)"><rect width="6" height="6"/></g>
<g transform="translate(821.625,947.625) scale(3.605)"><rect width="6" height="6"/></g>
<g transform="translate(842.625,947.625) scale(3.605)"><rect width="6" height="6"/></g>
<g transform="translate(863.625,947.625) scale(3.605)"><rect width="6" height="6"/></g>
<g transform="translate(905.625,947.625) scale(3.605)"><rect width="6" height="6"/></g>
<g transform="translate(107.625,107.625)"><g transform="scale(10.5)"><path d="M0,0v14h14V0H0z M12,12H2V2h10V12z"/></g></g>
<g transform="translate(821.625,107.625)"><g transform="scale(10.5)"><path d="M0,0v14h14V0H0z M12,12H2V2h10V12z"/></g></g>
<g transform="translate(107.625,821.625)"><g transform="scale(10.5)"><path d="M0,0v14h14V0H0z M12,12H2V2h10V12z"/></g></g>
<g transform="translate(149.625,149.625)"><g transform="scale(10.5)"><rect width="6" height="6"/></g></g>
<g transform="translate(863.625,149.625)"><g transform="scale(10.5)"><rect width="6" height="6"/></g></g>
<g transform="translate(149.625,863.625)"><g transform="scale(10.5)"><rect width="6" height="6"/></g></g>
</g></svg>
